<?xml version="1.0" encoding="utf-8"?>
<!-- Generator: Adobe Illustrator 23.0.0, SVG Export Plug-In . SVG Version: 6.00 Build 0)  -->
<svg version="1.1" id="Layer_1" xmlns="http://www.w3.org/2000/svg" xmlns:xlink="http://www.w3.org/1999/xlink" x="0px" y="0px"
	 viewBox="0 0 84 84" style="enable-background:new 0 0 84 84;" xml:space="preserve">
<style type="text/css">
	.st0{fill:#E84A47;}
</style>
<path class="st0" d="M73.5,16.5l-26-15c-1.7-1-3.8-1.5-6-1.5s-4.4,0.5-6,1.5l-26,15c-3.4,2-6,6.6-6,10.5v30c0,3.9,2.7,8.5,6,10.5
	l26,15c1.7,1,3.8,1.5,6,1.5c2.3,0,4.4-0.5,6-1.5l26-15c3.4-2,6-6.6,6-10.5V27C79.6,23.1,76.9,18.5,73.5,16.5 M44.9,57.5L44.9,57.5
	L44.9,57.5c-1.8,1-5.1,1-6.8,0L11.3,42l26.8-15.5l0,0c1.8-1,5.1-1,6.8,0L71.7,42L44.9,57.5z M74.3,27v10.5L46.7,21.5l9.1-5.2
	c1.8-1,5-1,6.8,0l8.3,4.8C72.7,22.1,74.3,24.9,74.3,27 M12,21.1l26-15c0.9-0.5,2.1-0.8,3.4-0.8c1.3,0,2.6,0.3,3.4,0.8l9.1,5.2
	L8.6,37.5V27C8.6,24.9,10.2,22.1,12,21.1 M8.6,57V46.5l27.6,15.9l-9.1,5.2c-1.8,1-5,1-6.8,0L12,62.9C10.2,61.9,8.6,59.1,8.6,57
	 M70.9,62.9l-26,15c-0.9,0.5-2.1,0.8-3.4,0.8c-1.3,0-2.6-0.3-3.4-0.8L29,72.7l45.4-26.2V57C74.3,59.1,72.7,61.9,70.9,62.9"/>
</svg>
