<?xml version="1.0" encoding="utf-8"?>
<!-- Generator: Adobe Illustrator 23.0.0, SVG Export Plug-In . SVG Version: 6.00 Build 0)  -->
<svg version="1.1" id="Layer_1" xmlns="http://www.w3.org/2000/svg" xmlns:xlink="http://www.w3.org/1999/xlink" x="0px" y="0px"
	 viewBox="0 0 578.2 578.2" style="enable-background:new 0 0 578.2 578.2;" xml:space="preserve">
<style type="text/css">
	.st0{fill:#003300;}
</style>
<g>
	<g>
		<path d="M15.2,39.2L174,38.1c50.2-0.3,89.5,0.4,118.1,2.2S347,46,371.2,52s45.5,15.7,64,29.2c12.5,9.2,15.6,15.6,9.3,19.3
			c-6.3,3.7-24.6,6.6-54.9,8.8c39.7,1.9,69.5,5.2,89.4,10.1c19.9,4.8,36.7,12.4,50.7,22.6l19.8,14.5c14.4,10.6,20.4,18.5,17.9,23.6
			c-2.5,5.2-12.8,8.7-30.9,10.8c-18.1,2-59.2,3.2-123.3,3.7L229,195.7L15.2,39.2z M210.9,64.8l47.5,34.8c6.8-0.1,12-0.2,15.8-0.2
			c15.7-0.1,24.4-1.2,26-3.2s-3.9-7.6-16.6-16.9c-6.7-4.9-13.1-8.3-19.4-10.3s-12.6-3.1-19-3.6C238.9,65,227.4,64.8,210.9,64.8z
			 M291.7,124l59.9,43.9c22.3-0.3,35.5-1.3,39.5-3s1.7-5.6-6.9-12l-20-14.6c-9.2-6.7-17.5-10.8-25-12.1
			C331.6,124.8,315.8,124.1,291.7,124z"/>
	</g>
	<g>
		<path d="M576.8,220.5v320.4H476.5l-0.2-216.3l-39.9,216.3H366l-42-211.6l-0.2,211.6H223.6V220.5h147.9c4.1,19.3,8.6,42,13.5,68.2
			l16.2,81.5l26.3-149.6L576.8,220.5L576.8,220.5z"/>
	</g>
	<polygon class="st0" points="1.4,68.6 194.1,211.3 194.1,537.3 0,374.3 	"/>
</g>
</svg>
