<?xml version="1.0" encoding="utf-8"?>
<!-- Generator: Adobe Illustrator 23.0.0, SVG Export Plug-In . SVG Version: 6.00 Build 0)  -->
<svg version="1.1" id="Layer_1" xmlns="http://www.w3.org/2000/svg" xmlns:xlink="http://www.w3.org/1999/xlink" x="0px" y="0px"
	 viewBox="0 0 98 98" style="enable-background:new 0 0 98 98;" xml:space="preserve">
<style type="text/css">
	.st0{clip-path:url(#SVGID_2_);}
	.st1{fill:url(#SVGID_3_);}
</style>
<g>
	<g>
		<defs>
			<path id="SVGID_1_" d="M60.8,25.7C47.6,40.6,44.5,37.4,42.4,36.8l0,0c-3.2-0.9-6.7-8.3,2.3-10.4l0,0c11.2-2.7,7.5-12.9,7.5-12.9
				l0,0c-2.6,7.2-10.1,8.1-13.8,8.6l0,0c-5.4,0.6-11.4,2.8-16.3,5.2l0,0c-4.4,2.2-8.5,5.4-12,9.3l0,0C1,46.7-3.6,61.5,3.4,73.6l0,0
				c0.9,1.6,2,3.1,3.3,4.4l0,0l0,0c3.7,3.4,7.7,7.6,10.7-3.6l0,0L20,63.5h-7.1l1.3-5.3h7.1l0.8-3.3c1.6-6.6,5.3-9.6,11.4-9.6l0,0h19
				l-0.5,6.1c-1.5-0.3-2.9-0.5-4.1-0.5l0,0h-9.3c-1.7,0-2.4,0.7-2.9,2.6l0,0l-1.2,4.7h12.6l-1.3,5.3H33.2l-2.9,11.8
				c-2.9,13.5,2.7,12.9,7.4,12.4l0,0c12.3-1.8,25.3-9.5,31.4-20.5l0,0C78.4,50.7,85,48.7,85,48.7l0,0c0,0-5.4-1.9-9.7,1.5l0,0
				c-3.1,2.4-7.9,1.6-8.7-2.3l0,0c-0.8-3.6,4.1-5.2,6.7-5.8l0,0c11-2.7,13.2-10.2,13.2-10.2l0,0c-14.5,6.2-10.6-6.3-10.6-6.3l0,0
				c6.3-13.1,21.7-8.7,21.7-8.7l0,0c-3.2-2.9-7.3-4.4-12-4.4l0,0C78,12.4,69,16.5,60.8,25.7"/>
		</defs>
		<clipPath id="SVGID_2_">
			<use xlink:href="#SVGID_1_"  style="overflow:visible;"/>
		</clipPath>
		<g class="st0">
			
				<linearGradient id="SVGID_3_" gradientUnits="userSpaceOnUse" x1="-97.0394" y1="-104.5111" x2="-95.9117" y2="-104.5111" gradientTransform="matrix(35.273 -48.2305 48.2305 35.273 8520.3691 -893.4297)">
				<stop  offset="0" style="stop-color:#8BC13F"/>
				<stop  offset="0.514" style="stop-color:#9EC93A"/>
				<stop  offset="1" style="stop-color:#B3D334"/>
			</linearGradient>
			<polygon class="st1" points="-40.4,62.2 79,-101 242.1,18.3 122.8,181.5 			"/>
		</g>
	</g>
</g>
</svg>
