<svg id="Layer_1" data-name="Layer 1" xmlns="http://www.w3.org/2000/svg" viewBox="0 0 150 150"><defs><style>.cls-1{fill:#0d334c;}</style></defs><rect class="cls-1" x="21.44" y="68.93" width="3.14" height="8.09"/><rect class="cls-1" x="27.62" y="68.93" width="3.14" height="8.09"/><rect class="cls-1" x="33.81" y="68.93" width="3.14" height="8.09"/><rect class="cls-1" x="36.15" y="25.96" width="3.14" height="24.74"/><path class="cls-1" d="M95.49,44a1.08,1.08,0,1,0,1.08-1.08A1.07,1.07,0,0,0,95.49,44Z"/><polygon class="cls-1" points="131.39 90.67 11.45 90.67 12.81 93.81 127.52 93.81 126.88 96.85 10.53 96.85 4.72 83.12 63.49 83.12 63.49 79.98 0 79.98 8.47 99.99 129.42 99.99 131.39 90.67"/><path class="cls-1" d="M106.21,53.31a1.94,1.94,0,1,0-1.94,2,1.93,1.93,0,0,0,1.94-2Z"/><path class="cls-1" d="M85.66,66a1.52,1.52,0,1,0,0,.43A1.55,1.55,0,0,0,85.66,66Z"/><path class="cls-1" d="M93.62,26.38A1.24,1.24,0,0,0,91.18,26a.86.86,0,0,0,0,.39,1.23,1.23,0,0,0,1.41,1A1.25,1.25,0,0,0,93.62,26.38Z"/><path class="cls-1" d="M115.12,42a1.49,1.49,0,0,0-1.49-1.49h0a1.5,1.5,0,0,0,0,3h0a1.5,1.5,0,0,0,1.49-1.5Z"/><path class="cls-1" d="M93.87,44a2.83,2.83,0,1,0,2.82-2.83h0A2.83,2.83,0,0,0,93.87,44Zm3.9,0a1.08,1.08,0,1,1-1.08-1.08A1.07,1.07,0,0,1,97.77,44Z"/><path class="cls-1" d="M76.84,32.09V27.94l15.48-4.35a2.27,2.27,0,0,1,2.31.64,2.31,2.31,0,0,1,.54,2.31l-5.64,14,1.26,1,5.84-14.4a3.82,3.82,0,0,0-.86-3.93,3.9,3.9,0,0,0-3.9-1l-15,4.22V18.77H73.67V32.25a3.11,3.11,0,0,1,1.68-.47A3.5,3.5,0,0,1,76.84,32.09Z"/><rect class="cls-1" x="70.34" y="14.33" width="10.12" height="3.14"/><rect class="cls-1" x="42.31" y="31.87" width="3.14" height="18.65"/><circle class="cls-1" cx="75.38" cy="35.04" r="1.71"/><path class="cls-1" d="M76.46,116.67a5.14,5.14,0,0,0,5-4.28h48.93a19,19,0,0,0,19-19v-8l-9.1-13.29a22.48,22.48,0,0,0,5.42-1.71l1.62-.73-1.87-3.39a7.77,7.77,0,0,1-3.17-.86A13,13,0,0,0,136.72,64h-1.65L117.69,38.75a4.5,4.5,0,0,0-3.17-2.47,4.39,4.39,0,0,0-3.81.95l-34,28.54V38a3.2,3.2,0,0,1-1.45.35,3.34,3.34,0,0,1-1.69-.48V51.56h-13v3.18H73.7V81.56h3.17V67.8l34.89-29.33a2.7,2.7,0,0,1,2.44-.57,2.82,2.82,0,0,1,2,1.58v0l16.9,24.7a18.1,18.1,0,0,0-3.17.77l-.57.19a3.75,3.75,0,0,1-2.25,0l-4.86-1.78,1.53,4.44a1.4,1.4,0,0,1,0,.86l-1.53,4.47,5-1.75a3.72,3.72,0,0,1,2.19,0h.51a21.11,21.11,0,0,0,6.78,1.05h2.13L148,85.91v7.33a17.52,17.52,0,0,1-17.57,17.44H81.38a5.06,5.06,0,0,0-4.92-4.16,5.11,5.11,0,0,0-5,4.16H54.26a22.13,22.13,0,0,0-2.88-3.52,24.2,24.2,0,0,0-8.06-5.08l-1.65-.6-1.08,3.71a7.26,7.26,0,0,1,1.68,2.92,16.43,16.43,0,0,0,1.24,2.57h-14a5.07,5.07,0,0,0-10.11.73,9.07,9.07,0,0,0,3.52,17.41h8.4a5,5,0,0,0,5,4.25,5.11,5.11,0,0,0,5-4.25H63.17a5.11,5.11,0,0,0,5,4.25,5.05,5.05,0,0,0,5.11-4.25H91.94a25.41,25.41,0,0,0-2,4.12l-.76,1.65,3.67,1.08a7.63,7.63,0,0,1,3-1.68,13.58,13.58,0,0,0,5-3.17c.73-.77,1.34-1.46,1.84-2.07h21.73a5.07,5.07,0,0,0,10,0h11.22v-1.58h-11.1a5.07,5.07,0,0,0-10,0H103.86c.44-.7.76-1.3,1-1.81l.28-.54a3.46,3.46,0,0,1,1.62-1.52l4.69-2.19-4.21-2.06a1.35,1.35,0,0,1-.64-.63l-2.06-4.19-2.22,4.69a3.16,3.16,0,0,1-1.49,1.59l-.44.25a21.88,21.88,0,0,0-5.52,4.06,19.41,19.41,0,0,0-2,2.35H73.29a5.07,5.07,0,0,0-10,0H41.39a5.08,5.08,0,0,0-10,0H23A7.49,7.49,0,0,1,19.63,113a5.07,5.07,0,0,0,9.89-.6H44.75a8.82,8.82,0,0,0,.76.86,20.31,20.31,0,0,0,5.58,3.9l.54.28a3.46,3.46,0,0,1,1.52,1.62l2.19,4.69,2.09-4.21a1.31,1.31,0,0,1,.64-.61l4.21-2.09-4.85-2.19a4.17,4.17,0,0,1-1.84-2,3.36,3.36,0,0,1-.22-.42h16A5.07,5.07,0,0,0,76.46,116.67Zm60.26-47.35a18.77,18.77,0,0,1-5.87-.88l-.48-.19h0l.64-.2a17.3,17.3,0,0,1,5.71-.88,10,10,0,0,1,4.5,1.08l.66.28A19.61,19.61,0,0,1,136.72,69.32ZM76.46,109.66a1.93,1.93,0,0,1,1.93,1.94h0a1.92,1.92,0,0,1-1.93,1.93h0a1.92,1.92,0,0,1-1.93-1.93h0A2,2,0,0,1,76.46,109.66Zm53.06,16.4a1.94,1.94,0,1,1-1.94,1.93A1.93,1.93,0,0,1,129.52,126.06Zm-32.32,1a17.33,17.33,0,0,1,4.63-3.48l.48-.29h0c0,.19-.23.38-.32.6a17.6,17.6,0,0,1-3.33,4.73,10.37,10.37,0,0,1-4,2.41l-.67.25a18.86,18.86,0,0,1,3.11-4.22Zm-28.89-1A1.94,1.94,0,1,1,66.38,128,1.92,1.92,0,0,1,68.31,126.06Zm-31.9,0a1.91,1.91,0,1,1-.07,0ZM24.55,113.37a1.91,1.91,0,0,1-1.91-1.9v0a1.94,1.94,0,1,1,1.94,1.93Zm28.54,1.14-.6-.31a17.59,17.59,0,0,1-4.7-3.46,10.37,10.37,0,0,1-2.41-4l-.25-.67a19.76,19.76,0,0,1,4.22,3.17,17,17,0,0,1,3.48,4.79l.29.51h0Z"/><polygon class="cls-1" points="69.61 73.83 50.9 73.83 46.62 54.35 21.66 54.35 18.01 66.09 42.46 66.09 41.73 62.95 22.29 62.95 23.94 57.49 44.08 57.49 48.39 76.97 66.47 76.97 66.47 87.65 132.02 87.65 132.69 84.51 69.61 84.51 69.61 73.83"/><polygon class="cls-1" points="79.69 78.36 79.69 81.47 133.32 81.47 133.96 78.36 79.69 78.36"/><path class="cls-1" d="M109.54,50.49a5.76,5.76,0,0,0-4.44-2.92l-.16,1.55a4.17,4.17,0,0,1,3.73,4.54,4.87,4.87,0,0,1-.15.76,4.2,4.2,0,0,1-2,2.5L79.63,71.7v1.78l27.59-15.19A5.69,5.69,0,0,0,110,54.86,5.82,5.82,0,0,0,109.54,50.49Z"/><path class="cls-1" d="M72.37,36.28,50.87,55.91l.41,1.77,22-20.13A3.13,3.13,0,0,1,72.37,36.28Z"/><path class="cls-1" d="M84.77,39.61l3.17-11H86.32l-2.88,10L78.65,35h0a3.18,3.18,0,0,1-1.49,2.73l5.36,4-4,14H80.2l3.65-12.94,8.75,6.66L95,47.35Z"/></svg>