<svg width="71" height="43" viewBox="0 0 71 43" fill="none" xmlns="http://www.w3.org/2000/svg">
<path d="M60.2001 28C65.6001 25.8 69.1001 20.9 69.1001 14.8C69.1001 6.30005 62.4001 0.300049 53.2001 0.300049H33.7001L40.5001 9.90005H52.2001C55.8001 9.90005 58.4001 11.9 58.4001 14.8C58.4001 17.7 55.8001 19.7001 52.2001 19.7001H33.6001V42.5H44.0001V29.3H49.1001L58.5001 42.5H70.3001L60.2001 28Z" fill="#CC0000"/>
<path d="M10.7999 21C10.7999 17 13.9999 9.90005 20.6999 9.90005H36.1999L29.1999 0.300049C25.6999 0.300049 23.4999 0.300049 19.1999 0.300049C11.4999 0.300049 6.79989 3.50005 3.59989 8.50005C-0.100111 14.4 -0.800111 25 1.69989 31.4C4.89989 39.7 11.6999 42.5 19.1999 42.5C23.9999 42.5 30.2999 42.5 30.2999 42.5V32.9001C30.2999 32.9001 23.4999 32.9001 20.6999 32.9001C13.9999 32.9001 10.7999 30.2 10.7999 21Z" fill="#CC0000"/>
</svg>
