<svg width="64" height="72" viewBox="0 0 64 72" fill="none" xmlns="http://www.w3.org/2000/svg">
<path d="M53.8543 57.5299C59.2906 55.322 62.7732 50.4779 62.7732 44.3475C62.7732 35.8247 56.0538 29.8774 46.826 29.8774H27.372L34.1474 39.4357H45.852C49.4552 39.4357 52.0211 41.3984 52.0211 44.3389C52.0211 47.2794 49.4552 49.2421 45.852 49.2421H27.3433V72H37.7836V58.8162H42.914L52.1504 72H64.0001L53.8543 57.5299Z" fill="#CC0000"/>
<path d="M20.5797 29.8919H20.416C20.3542 29.8919 20.2938 29.8919 20.2321 29.8919C19.8682 29.8889 19.5049 29.8624 19.1445 29.8125C16.6884 29.4903 14.4415 28.2568 12.8461 26.3549C11.2508 24.453 10.4225 22.0204 10.5245 19.5362C10.6265 17.052 11.6513 14.6961 13.3972 12.9324C15.1431 11.1687 17.4835 10.1249 19.9577 10.0066C20.1171 9.99366 20.2752 9.98789 20.426 9.98789H35.9335L28.9139 0.354614C25.394 0.354614 23.239 0.364709 18.9563 0.364709C11.1709 0.364709 6.50461 3.52004 3.31231 8.57463C-0.379946 14.4224 -0.986224 21.9862 1.49779 28.418C4.69871 36.7159 11.4597 39.5064 18.9563 39.5064C23.7088 39.5064 27.7919 39.5352 32.2096 39.5352C30.5302 37.1644 25.1326 29.9063 25.1326 29.9063C25.1326 29.9063 22.6169 29.8947 20.5797 29.8919Z" fill="#CC0000"/>
</svg>
