<svg width="40" height="40" viewBox="0 0 40 40" fill="none" xmlns="http://www.w3.org/2000/svg">
<g clip-path="url(#clip0)">
<path d="M33.4063 19.6243C32.7567 19.6243 32.2535 20.1251 32.2535 20.7779V36.5365H24.0787V30.1016C24.0787 29.498 23.5756 28.9703 22.9674 28.9703H17.0566C16.4064 28.9703 15.8827 29.4979 15.8827 30.1016V36.5365H7.72845V21.3011C7.72845 20.6929 7.22583 20.1877 6.57563 20.1877C5.96792 20.1877 5.46484 20.6929 5.46484 21.3011V37.6902C5.46484 38.2984 5.96792 38.8037 6.57563 38.8037H17.0566C17.6643 38.8037 18.1674 38.2984 18.1674 37.6902V31.2553H21.8145V37.6902C21.8145 38.2984 22.3176 38.8037 22.9674 38.8037H33.4063C34.0141 38.8037 34.5171 38.2984 34.5171 37.6902V20.778C34.5171 20.1252 34.0141 19.6243 33.4063 19.6243Z"  fill="white" fill-opacity="0.5"/>
<path d="M39.6735 20.5231L30.5765 11.3873V5.15808C30.5765 4.50965 30.0524 4.00886 29.4026 4.00886C28.7945 4.00886 28.2915 4.50972 28.2915 5.15808V9.10221L20.7874 1.55382C20.5574 1.32127 20.2843 1.19604 20.012 1.19604C19.6976 1.19604 19.4248 1.32572 19.1945 1.55382L0.350385 20.3979C-0.101708 20.8495 -0.131643 21.574 0.350385 21.9898C0.769406 22.4728 1.49117 22.4415 1.94327 21.9898L20.012 3.96409L38.0386 22.1598C38.2264 22.3476 38.4997 22.4549 38.8561 22.4549C39.1704 22.4549 39.4427 22.3476 39.6735 22.1598C40.0929 21.7394 40.1242 20.9792 39.6735 20.5231Z"  fill="white" fill-opacity="0.5"/>
</g>
<defs>
<clipPath id="clip0">
<rect width="39.9999" height="40"  fill="white" fill-opacity="0.5" />
</clipPath>
</defs>
</svg>
