<svg width="44" height="40" viewBox="0 0 44 40" fill="none" xmlns="http://www.w3.org/2000/svg">
<g clip-path="url(#clip0)">
<path d="M9.56323 1.30591L21.9157 0L34.2682 1.30591L43.8315 14.1437L21.9157 39.6643L0 14.1437L9.56323 1.30591Z" fill="#FDB300"/>
<path d="M8.87697 14.1436L21.9157 39.6642L0 14.1436H8.87697Z" fill="#EA0000"/>
<path d="M34.9545 14.1436L21.9157 39.6642L43.8314 14.1436H34.9545Z" fill="#EA0000"/>
<path d="M8.87695 14.1436H34.9545L21.9157 39.6642L8.87695 14.1436Z" fill="#FF3232"/>
<path d="M21.9157 0L9.56317 1.3059L8.87695 14.1437L21.9157 0Z" fill="#FD3131"/>
<path d="M21.9157 0L34.2682 1.3059L34.9545 14.1437L21.9157 0Z" fill="#FD3131"/>
<path d="M43.8315 14.1435L34.2682 1.30566L34.9546 14.1435H43.8315Z" fill="#FD0000"/>
<path d="M0 14.1435L9.56319 1.30566L8.87697 14.1435H0Z" fill="#FD0000"/>
<path d="M21.9157 0L8.87695 14.1437H34.9545L21.9157 0Z" fill="#F57171"/>
</g>
<defs>
<clipPath id="clip0">
<rect width="43.92" height="39.6841" fill="white"/>
</clipPath>
</defs>
</svg>
