<svg width="44" height="43" viewBox="0 0 44 43" fill="none" xmlns="http://www.w3.org/2000/svg">
<g clip-path="url(#clip0)">
<path d="M1.82996 1.83008H42.09V40.9921H1.82996V1.83008Z" fill="#260000"/>
<path d="M0 0V42.822H43.92V0H0ZM1.83 1.83H42.09V40.992H1.83V1.83Z" fill="#CC0000"/>
<path d="M15.244 24.2477L13.7983 29.7377C13.7617 29.8841 13.7068 29.9207 13.5238 29.9207H10.8337C10.6507 29.9207 10.6141 29.8658 10.6507 29.6462L15.8479 11.456C15.9394 11.1266 15.9943 10.8338 16.0309 9.9371C16.0309 9.809 16.0858 9.7541 16.1773 9.7541H20.0203C20.1484 9.7541 20.2033 9.7907 20.2399 9.9371L26.0593 29.6828C26.0959 29.8292 26.0593 29.9207 25.9129 29.9207H22.8751C22.7287 29.9207 22.6372 29.8841 22.6006 29.756L21.0817 24.2477H15.244ZM20.3314 21.2831C19.819 19.2518 18.6112 14.8232 18.1537 12.6821H18.1171C17.7328 14.8232 16.7629 18.4466 15.9943 21.2831H20.3314ZM28.5664 11.1083C28.5664 9.9371 29.3899 9.2417 30.433 9.2417C31.5493 9.2417 32.2996 9.992 32.2996 11.1083C32.2996 12.3161 31.5127 12.9749 30.3964 12.9749C29.335 12.9749 28.5664 12.3161 28.5664 11.1083ZM28.786 15.2624C28.786 15.116 28.8409 15.0428 29.0056 15.0428H31.8787C32.0251 15.0428 32.0983 15.0977 32.0983 15.2624V29.7011C32.0983 29.8475 32.0617 29.9207 31.8787 29.9207H29.0422C28.8592 29.9207 28.8043 29.8292 28.8043 29.6828V15.2624H28.786Z" fill="#CC0000"/>
</g>
<defs>
<clipPath id="clip0">
<rect width="43.92" height="42.822" fill="white"/>
</clipPath>
</defs>
</svg>
