<svg width="44" height="44" viewBox="0 0 44 44" fill="none" xmlns="http://www.w3.org/2000/svg">
<path d="M43.0937 20.0038L23.9158 0.828334C22.8124 -0.276111 21.0213 -0.276111 19.9164 0.828334L15.9344 4.81078L20.9855 9.8619C22.1597 9.46543 23.5057 9.73125 24.4413 10.667C25.3817 11.6086 25.6456 12.966 25.2392 14.1442L30.1076 19.0126C31.2854 18.6067 32.6443 18.869 33.5848 19.8111C34.8997 21.1256 34.8997 23.2556 33.5848 24.5704C32.2698 25.8856 30.1398 25.8856 28.824 24.5704C27.8353 23.5809 27.5908 22.1283 28.0916 20.9102L23.5513 16.3699L23.5509 28.3176C23.8714 28.4763 24.174 28.6881 24.4411 28.9541C25.7556 30.2684 25.7556 32.398 24.4411 33.7145C23.1262 35.0288 20.9953 35.0288 19.6818 33.7145C18.3671 32.3981 18.3671 30.2685 19.6818 28.9541C20.0067 28.6297 20.3826 28.3843 20.7838 28.2197V16.161C20.3825 15.9971 20.007 15.7535 19.6816 15.4265C18.6858 14.4315 18.4459 12.97 18.9566 11.7471L13.9772 6.76696L0.828594 19.9152C-0.276198 21.0205 -0.276198 22.8116 0.828594 23.9162L20.0053 43.0917C21.1093 44.1961 22.8998 44.1961 24.0054 43.0917L43.0934 24.0068C44.1979 22.9018 44.1979 21.1101 43.0934 20.0054" fill="#CC0000"/>
</svg>
