<svg width="44" height="44" viewBox="0 0 44 44" fill="none" xmlns="http://www.w3.org/2000/svg">
<g clip-path="url(#clip0)">
<path d="M43.92 0H0V43.92H43.92V0Z" fill="#CC0000"/>
<path d="M29.5031 34.3127C30.3878 35.7572 31.5387 36.8189 33.5744 36.8189C35.2845 36.8189 36.3769 35.9642 36.3769 34.7833C36.3769 33.3681 35.2545 32.8668 33.3722 32.0435L32.3405 31.6008C29.3623 30.332 27.3838 28.7425 27.3838 25.3823C27.3838 22.287 29.7422 19.9307 33.428 19.9307C36.052 19.9307 37.9385 20.8439 39.2979 23.2351L36.0841 25.2987C35.3765 24.0299 34.6131 23.53 33.428 23.53C32.2192 23.53 31.453 24.2969 31.453 25.2987C31.453 26.5368 32.2198 27.038 33.9906 27.8049L35.0224 28.2469C38.529 29.7506 40.5089 31.2836 40.5089 34.7303C40.5089 38.4461 37.5899 40.4817 33.6699 40.4817C29.837 40.4817 27.3608 38.6552 26.1491 36.2612L29.5031 34.3127ZM14.9237 34.6704C15.5721 35.8206 16.1619 36.7931 17.5799 36.7931C18.9358 36.7931 19.7912 36.2626 19.7912 34.1998V20.1663H23.9183V34.2555C23.9183 38.529 21.4127 40.4741 17.7555 40.4741C14.4511 40.4741 12.5374 38.764 11.5642 36.7043L14.9237 34.6704Z" fill="white"/>
</g>
<defs>
<clipPath id="clip0">
<rect width="43.92" height="43.92" fill="white"/>
</clipPath>
</defs>
</svg>
