<svg width="30" height="44" viewBox="0 0 30 44" fill="none" xmlns="http://www.w3.org/2000/svg">
<g clip-path="url(#clip0)">
<path d="M7.3229 43.9205C11.3635 43.9205 14.6429 40.6411 14.6429 36.6004V29.2803H7.3229C3.28228 29.2803 0.00292969 32.5597 0.00292969 36.6004C0.00292969 40.6411 3.28228 43.9205 7.3229 43.9205Z" fill="#CC0000"/>
<path d="M0.00292969 21.9601C0.00292969 17.9195 3.28228 14.6401 7.3229 14.6401H14.6429V29.2801H7.3229C3.28228 29.2801 0.00292969 26.0007 0.00292969 21.9601Z" fill="#CC0000"/>
<path d="M0.00292969 7.32C0.00292969 3.27936 3.28228 0 7.3229 0H14.6429V14.64H7.3229C3.28228 14.64 0.00292969 11.3606 0.00292969 7.32Z" fill="#CC0000"/>
<path d="M14.6429 0H21.963C26.0036 0 29.283 3.27936 29.283 7.32C29.283 11.3606 26.0036 14.64 21.963 14.64H14.6429V0Z" fill="#CC0000"/>
<path d="M29.283 21.9601C29.283 26.0007 26.0036 29.2801 21.963 29.2801C17.9223 29.2801 14.6429 26.0007 14.6429 21.9601C14.6429 17.9195 17.9223 14.6401 21.963 14.6401C26.0036 14.6401 29.283 17.9195 29.283 21.9601Z" fill="#CC0000"/>
</g>
<defs>
<clipPath id="clip0">
<rect width="29.2859" height="43.92" fill="white"/>
</clipPath>
</defs>
</svg>
