<?xml version="1.0" encoding="utf-8"?>
<!-- Generator: Adobe Illustrator 21.0.0, SVG Export Plug-In . SVG Version: 6.00 Build 0)  -->
<svg version="1.1" id="Capa_1" xmlns="http://www.w3.org/2000/svg" xmlns:xlink="http://www.w3.org/1999/xlink" x="0px" y="0px"
	 viewBox="0 0 459 459" style="enable-background:new 0 0 459 459;" xml:space="preserve">
<style type="text/css">
	.st0{fill:#7F7F7F;}
</style>
<g>
	<g id="drive-pdf">
		<path class="st0" d="M211.6,142.8L211.6,142.8C214.2,142.8,214.2,142.8,211.6,142.8c2.6-10.2,5.1-15.3,5.1-22.9v-5.1
			c2.6-12.8,2.6-23,0-25.5c0,0,0,0,0-2.6l-2.6-2.6l0,0l0,0c0,0,0,2.6-2.6,2.6C206.6,102,206.6,119.8,211.6,142.8L211.6,142.8z
			 M135.1,318.8c-5.1,2.5-10.2,5.1-12.8,7.6c-17.8,15.3-30.6,33.1-33.2,40.8l0,0l0,0l0,0C104.6,364.6,119.8,349.4,135.1,318.8
			C137.7,318.8,137.7,318.8,135.1,318.8C137.7,318.8,135.1,318.8,135.1,318.8z M369.8,280.5c-2.5-2.5-12.8-10.2-48.5-10.2
			c-2.5,0-2.5,0-5.1,0l0,0c0,0,0,0,0,2.5c17.9,7.6,35.7,12.8,48.5,12.8c2.5,0,2.5,0,5.1,0l0,0h2.5c0,0,0,0,0-2.5l0,0
			C372.3,283,369.8,283,369.8,280.5z M408,0H51C23,0,0,23,0,51v357c0,28,23,51,51,51h357c28,0,51-23,51-51V51C459,23,436,0,408,0z
			 M380,300.9c-5.1,2.5-12.8,5.1-23,5.1c-20.4,0-51-5.1-76.5-17.9c-43.4,5.1-76.5,10.2-102,20.4c-2.6,0-2.6,0-5.1,2.5
			c-30.6,53.6-56.1,79.1-76.5,79.1c-5.1,0-7.7,0-10.2-2.6l-12.8-7.6v-2.5c-2.6-5.1-2.6-7.6-2.6-12.8c2.6-12.8,17.8-35.7,48.4-53.6
			c5.1-2.5,12.8-7.6,22.9-12.8c7.6-12.8,15.3-28,25.5-45.9c12.8-25.5,20.4-51,28.1-73.9l0,0c-10.2-30.6-15.3-48.4-5.1-84.2
			c2.6-10.2,10.2-20.4,20.4-20.4h5.1c5.1,0,10.2,2.6,15.3,5.1c17.9,17.8,10.2,58.7,0,91.8c0,2.6,0,2.6,0,2.6
			c10.2,28.1,25.5,51,40.8,66.3c7.6,5.1,12.8,10.2,23,15.3c12.8,0,23-2.6,33.1-2.6c30.6,0,51,5.1,58.6,17.9
			c2.6,5.1,2.6,10.2,2.6,15.3C387.6,288.1,385,295.8,380,300.9z M214.2,201.4c-5.1,17.9-15.3,38.3-25.5,61.2
			c-5.1,10.2-10.2,17.9-15.3,28h2.6h2.6l0,0c33.1-12.8,63.8-20.4,84.1-23c-5.1-2.5-7.6-5.1-10.2-7.6
			C239.7,244.8,224.4,224.4,214.2,201.4z"/>
	</g>
</g>
</svg>
