<svg width="44" height="44" viewBox="0 0 44 44" fill="none" xmlns="http://www.w3.org/2000/svg">
<g clip-path="url(#clip0)">
<path d="M9.06202 18.6465C10.4074 18.6465 11.2969 18.8911 11.7417 19.3915C12.1865 19.8918 12.2976 20.7369 12.0641 21.9377C11.8195 23.1942 11.3525 24.0837 10.652 24.6285C9.95154 25.1622 8.89523 25.4291 7.472 25.4291H5.32604L6.6492 18.6465H9.06202ZM0.467041 32.2895H3.99176L4.82568 27.9753H7.85005C9.18433 27.9753 10.2851 27.8308 11.1413 27.5528C12.0085 27.2748 12.7869 26.8078 13.4874 26.1407C14.0767 25.5959 14.5548 24.9954 14.9217 24.3394C15.2886 23.6834 15.5444 22.9607 15.7001 22.1712C16.0781 20.2476 15.789 18.7577 14.855 17.6791C13.921 16.6117 12.4311 16.0669 10.3852 16.0669H3.61371L0.467041 32.2895Z" fill="#CC0000"/>
<path d="M18.3129 11.7749H21.8154L20.9815 16.0891H24.1059C26.074 16.0891 27.4194 16.4338 28.1644 17.112C28.9093 17.8014 29.1317 18.9022 28.8315 20.4366L27.3638 27.9753H23.8057L25.1956 20.8035C25.3513 19.9918 25.2957 19.4359 25.0177 19.1357C24.7397 18.8355 24.1615 18.6909 23.2609 18.6909H20.4589L18.6576 27.9753H15.1552L18.3129 11.7749Z" fill="#CC0000"/>
<path d="M36.6149 18.6465C37.9603 18.6465 38.8498 18.8911 39.2945 19.3915C39.7393 19.8918 39.8505 20.7369 39.617 21.9377C39.3724 23.1942 38.9054 24.0837 38.2049 24.6285C37.5044 25.1733 36.4481 25.4291 35.0249 25.4291H32.8789L34.2021 18.6465H36.6149ZM28.0199 32.2895H31.5446L32.3785 27.9753H35.4029C36.7372 27.9753 37.838 27.8308 38.6941 27.5528C39.5614 27.2748 40.3397 26.8078 41.0402 26.1407C41.6295 25.5959 42.1077 24.9954 42.4746 24.3394C42.8415 23.6834 43.0972 22.9607 43.2529 22.1712C43.631 20.2476 43.3419 18.7577 42.4079 17.6791C41.4739 16.6006 39.9839 16.0669 37.938 16.0669H31.1443L28.0199 32.2895Z" fill="#CC0000"/>
</g>
<defs>
<clipPath id="clip0">
<rect width="43.92" height="43.92" fill="white"/>
</clipPath>
</defs>
</svg>
