<svg width="40" height="40" viewBox="0 0 40 40" fill="none" xmlns="http://www.w3.org/2000/svg">
<path d="M30.0204 20.9508C29.4713 20.3525 28.5368 20.3115 27.9385 20.8607C27.3401 21.4098 27.2991 22.3443 27.8483 22.9426C29.6598 24.918 30.6598 27.4836 30.6598 30.1639V36.5C30.6598 36.7951 30.4139 37.041 30.1188 37.041H9.86471C9.56963 37.041 9.32373 36.7951 9.32373 36.5V30.1639C9.32373 24.2787 14.1106 19.5 19.9877 19.5C25.3647 19.5 29.7418 15.123 29.7418 9.7459C29.7418 4.36885 25.3729 0 19.9959 0C14.6188 0 10.2418 4.37705 10.2418 9.7541C10.2418 11.3607 10.6434 12.959 11.3975 14.3689C11.7827 15.0902 12.6762 15.3525 13.3975 14.9672C14.1188 14.582 14.3811 13.6885 13.9959 12.9672C13.4713 11.9836 13.1926 10.877 13.1926 9.7541C13.1926 6 16.2418 2.95082 19.9959 2.95082C23.75 2.95082 26.7991 6 26.7991 9.7541C26.7991 13.5082 23.75 16.5574 19.9959 16.5574C12.4877 16.5574 6.3811 22.6639 6.3811 30.1721V36.5082C6.3811 38.4344 7.94668 40 9.87291 40H30.127C32.0532 40 33.6188 38.4344 33.6188 36.5082V30.1721C33.6188 26.7459 32.3401 23.4754 30.0204 20.9508Z" fill="white" fill-opacity="0.5"/>
</svg>
