<svg width="32" height="32" viewBox="0 0 32 32" fill="none" xmlns="http://www.w3.org/2000/svg">
<path d="M16 0C9.78722 0 4.73291 5.13375 4.73291 11.4437V20.5566C4.73291 26.8666 9.78722 32 16 32C22.2125 32 27.2672 26.8821 27.2672 20.5916V11.4437C27.2672 5.13375 22.2125 0 16 0ZM25.1479 20.5916C25.1479 25.7138 21.0444 29.8808 16 29.8808C10.956 29.8808 6.85216 25.6979 6.85216 20.5563V11.4437C6.85216 6.30212 10.956 2.11919 16 2.11919C21.0445 2.11919 25.1479 6.30212 25.1479 11.4437V20.5916Z" fill="white" fill-opacity="0.5"/>
<path d="M16 8.75952C15.4148 8.75952 14.9404 9.2339 14.9404 9.81915V13.5278C14.9404 14.113 15.4148 14.5874 16 14.5874C16.5853 14.5874 17.0597 14.113 17.0597 13.5278V9.81915C17.0597 9.2339 16.5853 8.75952 16 8.75952Z" fill="white" fill-opacity="0.5"/>
</svg>
