<svg width="44" height="44" viewBox="0 0 44 44" fill="none" xmlns="http://www.w3.org/2000/svg">
<g clip-path="url(#clip0)">
<path d="M11.1264 6.58807V3.90407H14.9816V0.976074H8.24719V9.22327H14.9816V6.58807H11.1264Z" fill="#CC0000"/>
<path d="M21.9599 3.90407H24.6927V0.976074H17.9095C17.9095 0.976074 17.9095 2.44007 17.9095 3.90407C18.8367 4.83127 19.2759 5.22167 20.5935 6.58807C19.8127 6.58807 17.9095 6.58807 17.9095 6.58807V9.22327H24.6927V6.58807L21.9599 3.90407Z" fill="#CC0000"/>
<path d="M31.6224 3.90407H34.3552V0.976074H27.5232C27.5232 0.976074 27.5232 2.44007 27.5232 3.90407C28.4504 4.83127 28.8896 5.22167 30.2072 6.58807C29.4264 6.58807 27.5232 6.58807 27.5232 6.58807V9.22327H34.3064V6.58807L31.6224 3.90407Z" fill="#CC0000"/>
<path d="M21.228 17.8119L8.44238 23.1311L8.88158 28.4015L21.228 23.1311L34.404 17.5191L34.9408 12.1511L21.228 17.8119Z" fill="#CC0000"/>
<path d="M8.44238 23.1312L8.88158 28.4016L21.228 23.1312V17.812L8.44238 23.1312Z" fill="#CC0000"/>
<path d="M34.9408 12.1511L21.228 17.8119V23.1311L34.404 17.5191L34.9408 12.1511Z" fill="#CC0000"/>
<path d="M8.49121 23.1311L8.93041 28.4015L27.8648 28.4991L27.4256 35.5263L21.228 37.2831L15.2256 35.7703L14.8352 31.3783H9.27201L10.004 39.8207L21.2768 43.1391L32.5008 39.8695L33.916 23.1311H8.49121Z" fill="#CC0000"/>
<g opacity="0.05">
<path opacity="0.05" d="M21.228 23.1311H8.44238L8.88158 28.4015L21.228 28.4503V23.1311Z" fill="#CC0000"/>
<path opacity="0.05" d="M21.2279 37.2342L21.1791 37.283L15.1767 35.7702L14.8351 31.3782H9.22314L10.0039 39.8206L21.2279 43.139V37.2342Z" fill="#CC0000"/>
</g>
<path d="M7.32007 12.1511H34.9409L34.4041 17.5191H7.95447L7.32007 12.1511Z" fill="#CC0000"/>
<path opacity="0.05" d="M21.2281 12.1511H7.32007L7.95447 17.5191H21.2281V12.1511Z" fill="#CC0000"/>
</g>
<defs>
<clipPath id="clip0">
<rect width="43.92" height="43.92" fill="white"/>
</clipPath>
</defs>
</svg>
