<svg width="44" height="44" viewBox="0 0 44 44" fill="none" xmlns="http://www.w3.org/2000/svg">
<path d="M3.46484 21.9112C3.46484 29.2312 7.71044 35.5264 13.8592 38.5032L5.07524 14.396C4.05044 16.6896 3.46484 19.2272 3.46484 21.9112ZM34.3552 20.984C34.3552 18.6904 33.5256 17.1288 32.8424 15.9088C31.9152 14.396 31.0368 13.0784 31.0368 11.5656C31.0368 9.85764 32.3056 8.29604 34.16 8.29604C34.2576 8.29604 34.3064 8.29604 34.404 8.29604C31.1344 5.27044 26.7424 3.46484 21.96 3.46484C15.5184 3.46484 9.85764 6.78324 6.53924 11.7608C6.97844 11.7608 7.36884 11.7608 7.71044 11.7608C9.66244 11.7608 12.6392 11.5168 12.6392 11.5168C13.6152 11.468 13.7616 12.932 12.7368 13.0296C12.7368 13.0296 11.7608 13.1272 10.6384 13.2248L17.3728 33.2328L21.4232 21.1304L18.544 13.2736C17.568 13.2248 16.592 13.0784 16.592 13.0784C15.616 13.0296 15.7136 11.5168 16.6896 11.5656C16.6896 11.5656 19.7152 11.8096 21.5696 11.8096C23.5216 11.8096 26.4984 11.5656 26.4984 11.5656C27.4744 11.5168 27.6208 12.9808 26.596 13.0784C26.596 13.0784 25.5712 13.176 24.4976 13.2736L31.1832 33.1352L33.0376 26.9864C33.916 24.5464 34.3552 22.5456 34.3552 20.984ZM22.2528 23.5216L16.7384 39.6256C18.3976 40.1136 20.1544 40.3576 21.96 40.3576C24.1072 40.3576 26.1568 39.9672 28.1088 39.3328C28.06 39.2352 28.0112 39.1864 27.9624 39.0888L22.2528 23.5216ZM38.1128 13.0784C38.2104 13.664 38.2592 14.2984 38.2592 14.9816C38.2592 16.836 37.9176 18.9832 36.844 21.5696L31.1832 37.8688C36.6976 34.648 40.3576 28.7432 40.3576 21.9112C40.3576 18.6904 39.528 15.7136 38.1128 13.0784Z" fill="#CC0000"/>
</svg>
