<svg fill="none" height="24" viewBox="0 0 24 24" width="24" xmlns="http://www.w3.org/2000/svg"><path d="m1.89331 11.9731c0 4 2.32 7.44 5.68 9.0666l-4.8-13.1733c-.56 1.25333-.88 2.64-.88 4.1067zm16.87999-.5067c0-1.2533-.4533-2.10667-.8267-2.77333-.5066-.82667-.9866-1.54667-.9866-2.37334 0-.93333.6933-1.78666 1.7066-1.78666h.1334c-1.7867-1.65334-4.1867-2.64-6.8-2.64-3.52002 0-6.61336 1.81333-8.42669 4.53333h.64c1.06667 0 2.69333-.13333 2.69333-.13333.53334-.02667.61334.77333.05334.82666 0 0-.53334.05334-1.14667.10667l3.68 10.9333 2.21329-6.6133-1.5733-4.29333c-.53332-.02667-1.06666-.10667-1.06666-.10667-.53333-.02667-.48-.85333.05334-.82667 0 0 1.65332.13334 2.66662.13334 1.0667 0 2.6934-.13334 2.6934-.13334.5333-.02666.6133.77334.0533.82667 0 0-.56.05333-1.1467.10667l3.6534 10.85333 1.0133-3.36c.48-1.3333.72-2.4267.72-3.28zm-6.6133 1.3867-3.01336 8.8c.90666.2666 1.86666.4 2.85336.4 1.1733 0 2.2933-.2134 3.36-.56-.0267-.0534-.0534-.08-.08-.1334zm8.6666-5.7067c.0534.32.08.66667.08 1.04 0 1.01333-.1866 2.1867-.7733 3.6l-3.0933 8.9067c3.0133-1.76 5.0133-4.9867 5.0133-8.72 0-1.76-.4533-3.3867-1.2267-4.8267z" fill="#fff"/></svg>