<svg width="44" height="43" viewBox="0 0 44 43" fill="none" xmlns="http://www.w3.org/2000/svg">
<g clip-path="url(#clip0)">
<path d="M1.82996 1.83008H42.09V40.9921H1.82996V1.83008Z" fill="#260000"/>
<path d="M0 0V42.822H43.92V0H0ZM1.83 1.83H42.09V40.992H1.83V1.83ZM10.614 10.0284C10.614 9.9003 10.8702 9.8088 11.0166 9.8088C12.1878 9.7539 13.9263 9.7173 15.738 9.7173C20.8071 9.7173 22.7835 12.4989 22.7835 16.0674C22.7835 20.7156 19.4163 22.7103 15.2805 22.7103C14.5851 22.7103 14.3472 22.6737 13.8531 22.6737V29.7009C13.8531 29.8473 13.7982 29.9205 13.6335 29.9205H10.8336C10.6872 29.9205 10.614 29.8656 10.614 29.7009V10.0284ZM13.8714 19.7457C14.2923 19.7823 14.6217 19.7823 15.3537 19.7823C17.4948 19.7823 19.5078 19.032 19.5078 16.1223C19.5078 13.7982 18.0621 12.627 15.6282 12.627C14.8962 12.627 14.2008 12.6636 13.8714 12.6819V19.7457ZM29.6094 17.568C28.1637 17.568 27.6696 18.3 27.6696 18.9039C27.6696 19.5627 27.999 20.0202 29.9388 21.0267C32.8119 22.4175 33.7086 23.7534 33.7086 25.7115C33.7086 28.6395 31.476 30.2133 28.4565 30.2133C26.8644 30.2133 25.4919 29.8839 24.705 29.4264C24.5769 29.3715 24.5586 29.28 24.5586 29.1336V26.4435C24.5586 26.2605 24.6501 26.2056 24.7782 26.2971C25.9311 27.0474 27.2487 27.3768 28.4565 27.3768C29.9022 27.3768 30.5061 26.7729 30.5061 25.9494C30.5061 25.2906 30.0852 24.705 28.2369 23.7534C25.6383 22.509 24.5586 21.2463 24.5586 19.1418C24.5586 16.7811 26.4069 14.823 29.6094 14.823C31.1832 14.823 32.2812 15.0609 32.8851 15.3354C33.0315 15.4269 33.0681 15.5733 33.0681 15.7014V18.2085C33.0681 18.3549 32.9766 18.4464 32.7936 18.3915C31.9884 17.8791 30.7989 17.568 29.6094 17.568Z" fill="#CC0000"/>
</g>
<defs>
<clipPath id="clip0">
<rect width="43.92" height="42.822" fill="white"/>
</clipPath>
</defs>
</svg>
