<svg width="55" height="39" viewBox="0 0 55 39" fill="none" xmlns="http://www.w3.org/2000/svg">
<path d="M43.5283 19.37C43.5283 17.2468 40.8694 15.2347 36.7929 13.9869C37.7336 9.83201 37.3155 6.5264 35.4733 5.46807C35.0486 5.21983 34.5521 5.10224 34.0099 5.10224V6.55906C34.3104 6.55906 34.5521 6.61786 34.7547 6.72891C35.6431 7.23848 36.0286 9.17873 35.7281 11.6743C35.6562 12.2884 35.5386 12.9351 35.3949 13.5949C34.1144 13.2814 32.7164 13.0396 31.2465 12.8829C30.3646 11.6743 29.45 10.5768 28.5289 9.61643C30.6586 7.63698 32.6576 6.55253 34.0165 6.55253V5.0957C32.2199 5.0957 29.8681 6.37614 27.4901 8.59731C25.1122 6.38921 22.7604 5.12183 20.9638 5.12183V6.57866C22.3161 6.57866 24.3217 7.65658 26.4514 9.62296C25.5368 10.5833 24.6222 11.6743 23.7534 12.8829C22.2769 13.0396 20.8789 13.2814 19.5985 13.6015C19.4482 12.9482 19.3372 12.3145 19.2588 11.7069C18.9517 9.21139 19.3306 7.27114 20.2126 6.75505C20.4085 6.63745 20.6633 6.58519 20.9638 6.58519V5.12837C20.4151 5.12837 19.9186 5.24596 19.4874 5.49421C17.6517 6.55253 17.2401 9.85161 18.1874 13.9934C14.124 15.2477 11.4781 17.2533 11.4781 19.37C11.4781 21.4931 14.137 23.5053 18.2135 24.753C17.2728 28.9079 17.6909 32.2135 19.5331 33.2718C19.9578 33.5201 20.4543 33.6377 21.003 33.6377C22.7996 33.6377 25.1514 32.3573 27.5293 30.1361C29.9073 32.3442 32.2591 33.6116 34.0556 33.6116C34.6044 33.6116 35.1009 33.494 35.5321 33.2457C37.3678 32.1874 37.7794 28.8883 36.8321 24.7465C40.8825 23.4987 43.5283 21.4866 43.5283 19.37ZM35.0225 15.0126C34.7808 15.8553 34.4803 16.7242 34.1406 17.593C33.8727 17.0704 33.5918 16.5478 33.2848 16.0251C32.9843 15.5025 32.6642 14.993 32.344 14.4965C33.2717 14.6337 34.1667 14.8035 35.0225 15.0126ZM32.0305 21.97C31.5209 22.852 30.9983 23.6882 30.4561 24.4656C29.4827 24.5505 28.4962 24.5962 27.5032 24.5962C26.5168 24.5962 25.5303 24.5505 24.5634 24.4721C24.0212 23.6947 23.492 22.865 22.9825 21.9896C22.486 21.1338 22.0352 20.265 21.6237 19.3896C22.0287 18.5142 22.486 17.6388 22.976 16.783C23.4855 15.901 24.0081 15.0648 24.5504 14.2874C25.5238 14.2025 26.5102 14.1568 27.5032 14.1568C28.4897 14.1568 29.4761 14.2025 30.443 14.2809C30.9852 15.0583 31.5144 15.888 32.0239 16.7634C32.5204 17.6192 32.9712 18.488 33.3828 19.3634C32.9712 20.2388 32.5204 21.1142 32.0305 21.97ZM34.1406 21.1208C34.4933 21.9962 34.7939 22.8716 35.0421 23.7208C34.1863 23.9299 33.2848 24.1063 32.3506 24.2435C32.6707 23.7404 32.9908 23.2243 33.2913 22.6952C33.5918 22.1726 33.8727 21.6434 34.1406 21.1208ZM27.5163 28.0913C26.9087 27.4642 26.3012 26.7651 25.7001 26.0008C26.2881 26.0269 26.8891 26.0465 27.4967 26.0465C28.1108 26.0465 28.7183 26.0335 29.3128 26.0008C28.7249 26.7651 28.1173 27.4642 27.5163 28.0913ZM22.6558 24.2435C21.7282 24.1063 20.8332 23.9364 19.9774 23.7274C20.2191 22.8846 20.5196 22.0158 20.8593 21.1469C21.1272 21.6695 21.4081 22.1922 21.7151 22.7148C22.0222 23.2374 22.3357 23.747 22.6558 24.2435ZM27.4836 10.6486C28.0912 11.2758 28.6987 11.9748 29.2997 12.7391C28.7118 12.713 28.1108 12.6934 27.5032 12.6934C26.8891 12.6934 26.2816 12.7065 25.6871 12.7391C26.275 11.9748 26.8826 11.2758 27.4836 10.6486ZM22.6493 14.4965C22.3292 14.9995 22.0091 15.5156 21.7086 16.0447C21.4081 16.5674 21.1272 17.09 20.8593 17.6126C20.5065 16.7372 20.206 15.8618 19.9578 15.0126C20.8136 14.81 21.7151 14.6337 22.6493 14.4965ZM16.7371 22.6756C14.4245 21.6891 12.9284 20.3956 12.9284 19.37C12.9284 18.3443 14.4245 17.0443 16.7371 16.0643C17.2989 15.8226 17.913 15.607 18.5467 15.4045C18.9191 16.685 19.409 18.0177 20.0166 19.383C19.4156 20.7419 18.9321 22.068 18.5663 23.3419C17.9195 23.1394 17.3054 22.9173 16.7371 22.6756ZM20.2518 32.011C19.3633 31.5014 18.9779 29.5612 19.2784 27.0656C19.3502 26.4516 19.4678 25.8048 19.6115 25.145C20.892 25.4586 22.29 25.7003 23.7599 25.8571C24.6418 27.0656 25.5564 28.1632 26.4776 29.1235C24.3478 31.1029 22.3488 32.1874 20.99 32.1874C20.696 32.1809 20.4477 32.1221 20.2518 32.011ZM35.7477 27.033C36.0547 29.5285 35.6758 31.4688 34.7939 31.9849C34.5979 32.1025 34.3431 32.1547 34.0426 32.1547C32.6903 32.1547 30.6847 31.0768 28.555 29.1104C29.4696 28.1501 30.3842 27.0591 31.2531 25.8505C32.7295 25.6938 34.1275 25.452 35.4079 25.1319C35.5582 25.7917 35.6758 26.4254 35.7477 27.033ZM38.2628 22.6756C37.701 22.9173 37.0869 23.1329 36.4532 23.3354C36.0808 22.055 35.5909 20.7223 34.9833 19.3569C35.5843 17.9981 36.0678 16.6719 36.4336 15.398C37.0804 15.6005 37.6944 15.8226 38.2693 16.0643C40.582 17.0508 42.078 18.3443 42.078 19.37C42.0714 20.3956 40.5754 21.6957 38.2628 22.6756Z" fill="#CC0000"/>
<path d="M27.4967 22.3553C29.1456 22.3553 30.4822 21.0186 30.4822 19.3698C30.4822 17.7209 29.1456 16.3843 27.4967 16.3843C25.8479 16.3843 24.5112 17.7209 24.5112 19.3698C24.5112 21.0186 25.8479 22.3553 27.4967 22.3553Z" fill="#CC0000"/>
</svg>
