<svg width="44" height="45" viewBox="0 0 44 45" fill="none" xmlns="http://www.w3.org/2000/svg">
<g clip-path="url(#clip0)">
<path d="M4.10913 0.80249H6.87925V3.53673H9.40536V0.80249H12.1755V9.07696H9.40536V6.30684H6.86489V9.07696H4.10913V0.80249Z" fill="#CC0000"/>
<path d="M15.7995 3.55108H13.3595V0.80249H21.0024V3.55108H18.5624V9.08414H15.7923V3.55108H15.7995Z" fill="#CC0000"/>
<path d="M22.2225 0.80249H25.1075L26.8801 3.70896L28.6598 0.80249H31.5448V9.07696H28.789V4.97202L26.8801 7.91437H26.8298L24.9281 4.9792V9.07696H22.2225V0.80249Z" fill="#CC0000"/>
<path d="M32.9082 0.80249H35.6783V6.33555H39.568V9.06978H32.9082V0.80249Z" fill="#CC0000"/>
<path d="M28.4229 28.9916L27.7914 36.0532L21.7273 37.6895H21.7129L15.6488 36.0604L15.2613 31.7115H9.79281L10.5535 40.2658L21.7129 43.3589H21.7201H21.7273H21.7345L32.8867 40.2658L34.3794 23.5446H14.5293L14.0341 17.9613H34.8531H34.8746L35.3626 12.5144H8.07764L9.54881 28.9916H28.4229Z" fill="#CC0000"/>
</g>
<defs>
<clipPath id="clip0">
<rect width="43.92" height="43.92" fill="white" transform="translate(0.0400391 0.300049)"/>
</clipPath>
</defs>
</svg>
