<svg width="40" height="40" viewBox="0 0 40 40" fill="none" xmlns="http://www.w3.org/2000/svg">
<path d="M34.1393 5.86066C30.3607 2.08197 25.3443 0 20 0C14.6557 0 9.63934 2.08197 5.86066 5.86066C2.08197 9.63934 0 14.6557 0 20C0 25.3443 2.08197 30.3607 5.86066 34.1393C9.63934 37.918 14.6557 40 20 40C23.2541 40 26.4754 39.2049 29.3361 37.6885C30.0574 37.3115 30.3279 36.418 29.9508 35.6967C29.5738 34.9754 28.6803 34.7049 27.959 35.082C25.5246 36.3689 22.7787 37.0492 20 37.0492C10.5984 37.0492 2.95082 29.4016 2.95082 20C2.95082 10.5984 10.5984 2.95082 20 2.95082C29.4016 2.95082 37.0492 10.5984 37.0492 20C37.0492 23.1639 36.1639 24.9672 35.418 25.918C34.623 26.9426 33.5574 27.5246 32.4918 27.5246C31.0082 27.5246 29.5082 26.3443 29.5082 23.7049V12.2213C29.5082 11.4098 28.8443 10.7459 28.0328 10.7459C27.2213 10.7459 26.5574 11.4098 26.5574 12.2213V12.8689C24.7213 11.0246 22.1885 9.88525 19.3852 9.88525C13.8033 9.87705 9.26229 14.418 9.26229 20C9.26229 25.582 13.8033 30.1229 19.3852 30.1229C20.377 30.1229 21.3525 29.9836 22.2869 29.6967C23.0656 29.4672 23.5082 28.6393 23.2787 27.8607C23.0492 27.082 22.2213 26.6393 21.4426 26.8689C20.7787 27.0656 20.082 27.1721 19.3852 27.1721C15.4344 27.1721 12.2131 23.959 12.2131 20C12.2131 16.0492 15.4262 12.8279 19.3852 12.8279C23.3443 12.8279 26.5574 16.041 26.5574 20V23.7049C26.5574 28.1475 29.541 30.4754 32.4918 30.4754C34.4672 30.4754 36.3852 29.4754 37.7459 27.7295C39.2213 25.8361 40 23.1639 40 20C40 14.6557 37.918 9.63934 34.1393 5.86066Z" fill="white" fill-opacity="0.5"/>
</svg>
