<svg width="24" height="24" viewBox="0 0 24 24" fill="none" xmlns="http://www.w3.org/2000/svg">
<path d="M1.89331 11.9731C1.89331 15.9731 4.21331 19.4131 7.57331 21.0397L2.77331 7.8664C2.21331 9.11973 1.89331 10.5064 1.89331 11.9731ZM18.7733 11.4664C18.7733 10.2131 18.32 9.35973 17.9466 8.69307C17.44 7.8664 16.96 7.1464 16.96 6.31973C16.96 5.3864 17.6533 4.53307 18.6666 4.53307C18.72 4.53307 18.7466 4.53307 18.8 4.53307C17.0133 2.87973 14.6133 1.89307 12 1.89307C8.47998 1.89307 5.38664 3.7064 3.57331 6.4264C3.81331 6.4264 4.02664 6.4264 4.21331 6.4264C5.27998 6.4264 6.90664 6.29307 6.90664 6.29307C7.43998 6.2664 7.51998 7.0664 6.95998 7.11973C6.95998 7.11973 6.42664 7.17307 5.81331 7.2264L9.49331 18.1597L11.7066 11.5464L10.1333 7.25307C9.59998 7.2264 9.06664 7.1464 9.06664 7.1464C8.53331 7.11973 8.58664 6.29307 9.11998 6.31973C9.11998 6.31973 10.7733 6.45307 11.7866 6.45307C12.8533 6.45307 14.48 6.31973 14.48 6.31973C15.0133 6.29307 15.0933 7.09307 14.5333 7.1464C14.5333 7.1464 13.9733 7.19973 13.3866 7.25307L17.04 18.1064L18.0533 14.7464C18.5333 13.4131 18.7733 12.3197 18.7733 11.4664ZM12.16 12.8531L9.14664 21.6531C10.0533 21.9197 11.0133 22.0531 12 22.0531C13.1733 22.0531 14.2933 21.8397 15.36 21.4931C15.3333 21.4397 15.3066 21.4131 15.28 21.3597L12.16 12.8531ZM20.8266 7.1464C20.88 7.4664 20.9066 7.81307 20.9066 8.1864C20.9066 9.19973 20.72 10.3731 20.1333 11.7864L17.04 20.6931C20.0533 18.9331 22.0533 15.7064 22.0533 11.9731C22.0533 10.2131 21.6 8.5864 20.8266 7.1464Z" fill="white"/>
</svg>
